<svg width="176" height="48" viewBox="0 0 176 48" fill="none" xmlns="http://www.w3.org/2000/svg">
<path d="M9.244 28.4V14.562H7.682V12.032H11.972V14.408L11.686 13.814C12.0967 13.1687 12.654 12.67 13.358 12.318C14.0767 11.9513 14.8907 11.768 15.8 11.768C16.944 11.768 17.9633 12.0467 18.858 12.604C19.7673 13.1613 20.486 13.9093 21.014 14.848C21.5567 15.7867 21.828 16.8427 21.828 18.016C21.828 19.1747 21.564 20.2307 21.036 21.184C20.508 22.1373 19.7893 22.8927 18.88 23.45C17.9707 23.9927 16.9367 24.264 15.778 24.264C14.9127 24.264 14.1133 24.0953 13.38 23.758C12.6613 23.406 12.0893 22.9073 11.664 22.262L12.126 21.69V28.4H9.244ZM15.47 21.624C16.1153 21.624 16.6873 21.47 17.186 21.162C17.6993 20.854 18.1027 20.4287 18.396 19.886C18.6893 19.3433 18.836 18.72 18.836 18.016C18.836 17.312 18.6893 16.696 18.396 16.168C18.1027 15.6253 17.6993 15.2 17.186 14.892C16.6873 14.5693 16.1153 14.408 15.47 14.408C14.8247 14.408 14.2453 14.562 13.732 14.87C13.2333 15.178 12.8373 15.6107 12.544 16.168C12.2653 16.7107 12.126 17.3267 12.126 18.016C12.126 18.72 12.2653 19.3433 12.544 19.886C12.8373 20.4287 13.2333 20.854 13.732 21.162C14.2453 21.47 14.8247 21.624 15.47 21.624ZM27.6341 24.264C26.7981 24.264 26.0721 24.1247 25.4561 23.846C24.8401 23.5673 24.3634 23.1713 24.0261 22.658C23.6888 22.13 23.5201 21.5213 23.5201 20.832C23.5201 20.172 23.6668 19.5853 23.9601 19.072C24.2534 18.544 24.7081 18.104 25.3241 17.752C25.9401 17.4 26.7174 17.1507 27.6561 17.004L31.5721 16.366V18.566L28.2061 19.138C27.6341 19.2407 27.2088 19.424 26.9301 19.688C26.6514 19.952 26.5121 20.2967 26.5121 20.722C26.5121 21.1327 26.6661 21.4627 26.9741 21.712C27.2968 21.9467 27.6928 22.064 28.1621 22.064C28.7634 22.064 29.2914 21.9393 29.7461 21.69C30.2154 21.426 30.5748 21.0667 30.8241 20.612C31.0881 20.1573 31.2201 19.6587 31.2201 19.116V16.036C31.2201 15.5227 31.0148 15.0973 30.6041 14.76C30.2081 14.408 29.6801 14.232 29.0201 14.232C28.4041 14.232 27.8541 14.4007 27.3701 14.738C26.9008 15.0607 26.5561 15.4933 26.3361 16.036L23.9821 14.892C24.2168 14.2613 24.5834 13.7187 25.0821 13.264C25.5954 12.7947 26.1968 12.428 26.8861 12.164C27.5754 11.9 28.3234 11.768 29.1301 11.768C30.1128 11.768 30.9781 11.9513 31.7261 12.318C32.4741 12.67 33.0534 13.1687 33.4641 13.814C33.8894 14.4447 34.1021 15.1853 34.1021 16.036V21.624H35.4221V24H31.3741V21.954L31.9901 21.91C31.6821 22.4233 31.3154 22.856 30.8901 23.208C30.4648 23.5453 29.9808 23.8093 29.4381 24C28.8954 24.176 28.2941 24.264 27.6341 24.264ZM37.4533 24V12.032H40.1593V14.804L39.8513 14.342C40.0713 13.4767 40.5113 12.8313 41.1713 12.406C41.8313 11.9807 42.6087 11.768 43.5033 11.768C44.486 11.768 45.3513 12.0247 46.0993 12.538C46.8473 13.0513 47.3313 13.726 47.5513 14.562L46.7373 14.628C47.104 13.6747 47.654 12.9633 48.3873 12.494C49.1207 12.01 49.964 11.768 50.9173 11.768C51.768 11.768 52.5233 11.9587 53.1833 12.34C53.858 12.7213 54.386 13.2567 54.7673 13.946C55.1487 14.6207 55.3393 15.4053 55.3393 16.3V24H52.4573V16.982C52.4573 16.454 52.362 15.9993 52.1713 15.618C51.9807 15.2367 51.7167 14.9433 51.3793 14.738C51.042 14.518 50.6313 14.408 50.1473 14.408C49.6927 14.408 49.2893 14.518 48.9373 14.738C48.5853 14.9433 48.314 15.2367 48.1233 15.618C47.9327 15.9993 47.8373 16.454 47.8373 16.982V24H44.9553V16.982C44.9553 16.454 44.86 15.9993 44.6693 15.618C44.4787 15.2367 44.2073 14.9433 43.8553 14.738C43.518 14.518 43.1147 14.408 42.6453 14.408C42.1907 14.408 41.7873 14.518 41.4353 14.738C41.0833 14.9433 40.812 15.2367 40.6213 15.618C40.4307 15.9993 40.3353 16.454 40.3353 16.982V24H37.4533ZM63.4535 24.264C62.2215 24.264 61.1435 23.9853 60.2195 23.428C59.2955 22.8707 58.5769 22.1153 58.0635 21.162C57.5502 20.2087 57.2935 19.1527 57.2935 17.994C57.2935 16.7913 57.5502 15.728 58.0635 14.804C58.5915 13.8653 59.3029 13.1247 60.1975 12.582C61.1069 12.0393 62.1189 11.768 63.2335 11.768C64.1722 11.768 64.9935 11.922 65.6975 12.23C66.4162 12.538 67.0249 12.9633 67.5235 13.506C68.0222 14.0487 68.4035 14.672 68.6675 15.376C68.9315 16.0653 69.0635 16.8133 69.0635 17.62C69.0635 17.8253 69.0489 18.038 69.0195 18.258C69.0049 18.478 68.9682 18.6687 68.9095 18.83H59.6695V16.63H67.2815L65.9175 17.664C66.0495 16.9893 66.0129 16.388 65.8075 15.86C65.6169 15.332 65.2942 14.914 64.8395 14.606C64.3995 14.298 63.8642 14.144 63.2335 14.144C62.6322 14.144 62.0969 14.298 61.6275 14.606C61.1582 14.8993 60.7989 15.3393 60.5495 15.926C60.3149 16.498 60.2269 17.1947 60.2855 18.016C60.2269 18.7493 60.3222 19.402 60.5715 19.974C60.8355 20.5313 61.2169 20.964 61.7155 21.272C62.2289 21.58 62.8155 21.734 63.4755 21.734C64.1355 21.734 64.6929 21.5947 65.1475 21.316C65.6169 21.0373 65.9835 20.6633 66.2475 20.194L68.5795 21.338C68.3449 21.91 67.9782 22.416 67.4795 22.856C66.9809 23.296 66.3869 23.6407 65.6975 23.89C65.0229 24.1393 64.2749 24.264 63.4535 24.264ZM70.5883 24V21.448H72.4803V14.606H70.5883V12.032H75.2083V14.672L74.9663 14.32C75.2449 13.4107 75.6776 12.78 76.2643 12.428C76.8656 12.076 77.5843 11.9 78.4203 11.9H79.1463V14.452H78.1123C77.2909 14.452 76.6236 14.7087 76.1103 15.222C75.6116 15.7207 75.3623 16.4247 75.3623 17.334V21.448H77.7163V24H70.5883ZM83.8029 24.264C83.0402 24.264 82.3582 24.1393 81.7569 23.89C81.1702 23.6407 80.7082 23.274 80.3709 22.79C80.0335 22.306 79.8649 21.712 79.8649 21.008C79.8649 20.2453 80.0555 19.5927 80.4369 19.05C80.8182 18.5073 81.3462 18.0673 82.0209 17.73C82.6955 17.378 83.4729 17.136 84.3529 17.004L88.3789 16.366L88.1589 18.566L84.7709 19.16C84.2282 19.2627 83.7735 19.4533 83.4069 19.732C83.0402 19.996 82.8569 20.3627 82.8569 20.832C82.8569 21.2427 83.0035 21.5507 83.2969 21.756C83.6049 21.9613 83.9935 22.064 84.4629 22.064C85.0495 22.064 85.5775 21.932 86.0469 21.668C86.5162 21.3893 86.9049 21.0227 87.2129 20.568C87.5209 20.1133 87.7042 19.6147 87.7629 19.072L88.1809 16.08C88.2395 15.684 88.1735 15.354 87.9829 15.09C87.8069 14.8113 87.5575 14.5987 87.2349 14.452C86.9122 14.3053 86.5602 14.232 86.1789 14.232C85.5189 14.232 84.9249 14.408 84.3969 14.76C83.8835 15.112 83.4875 15.5593 83.2089 16.102L80.9429 14.826C81.2509 14.1953 81.6689 13.66 82.1969 13.22C82.7395 12.7653 83.3629 12.4133 84.0669 12.164C84.7855 11.9 85.5482 11.768 86.3549 11.768C87.3229 11.768 88.1809 11.9587 88.9289 12.34C89.6915 12.7213 90.2709 13.242 90.6669 13.902C91.0629 14.562 91.1949 15.332 91.0629 16.212L90.3149 21.624H91.6129L91.3049 24H87.2349L87.5209 21.954L88.2469 21.976C87.8802 22.4893 87.4695 22.9147 87.0149 23.252C86.5602 23.5893 86.0615 23.8387 85.5189 24C84.9909 24.176 84.4189 24.264 83.8029 24.264ZM93.3361 24L95.0081 12.032H97.7141L97.4061 14.386L97.2301 13.902C97.6114 13.1687 98.1321 12.6333 98.7921 12.296C99.4521 11.944 100.185 11.768 100.992 11.768C101.901 11.768 102.671 11.9807 103.302 12.406C103.947 12.8313 104.417 13.4107 104.71 14.144C105.018 14.8627 105.106 15.6767 104.974 16.586L103.94 24H101.058L102.048 16.916C102.151 16.1533 102.011 15.5447 101.63 15.09C101.249 14.6353 100.706 14.408 100.002 14.408C99.5327 14.408 99.0927 14.518 98.6821 14.738C98.2861 14.9433 97.9561 15.2367 97.6921 15.618C97.4427 15.9993 97.2741 16.454 97.1861 16.982L96.2181 24H93.3361Z" fill="white"/>
<path d="M111.607 24V7.346H112.927V19.248L112.245 19.182L119.153 12.318H120.957L116.249 17.026L121.397 24H119.747L114.863 17.444L115.743 17.466L112.575 20.722L112.927 19.82V24H111.607ZM126.918 24.264C126.185 24.264 125.532 24.1247 124.96 23.846C124.388 23.5673 123.933 23.1787 123.596 22.68C123.259 22.1813 123.09 21.6093 123.09 20.964C123.09 20.392 123.215 19.8567 123.464 19.358C123.713 18.8593 124.117 18.434 124.674 18.082C125.231 17.7153 125.957 17.4587 126.852 17.312L131.582 16.52V17.752L127.204 18.478C126.207 18.6393 125.503 18.94 125.092 19.38C124.681 19.82 124.476 20.3333 124.476 20.92C124.476 21.5507 124.711 22.064 125.18 22.46C125.664 22.856 126.273 23.054 127.006 23.054C127.857 23.054 128.597 22.8633 129.228 22.482C129.859 22.086 130.343 21.5727 130.68 20.942C131.032 20.2967 131.208 19.5927 131.208 18.83V15.926C131.208 15.1487 130.929 14.518 130.372 14.034C129.829 13.55 129.111 13.308 128.216 13.308C127.483 13.308 126.823 13.4913 126.236 13.858C125.649 14.2247 125.202 14.7013 124.894 15.288L123.706 14.65C123.926 14.1807 124.263 13.748 124.718 13.352C125.173 12.956 125.701 12.6407 126.302 12.406C126.903 12.1713 127.541 12.054 128.216 12.054C129.067 12.054 129.815 12.2227 130.46 12.56C131.12 12.8827 131.633 13.3373 132 13.924C132.367 14.496 132.55 15.1633 132.55 15.926V22.79H133.87V24H131.208V21.558L131.384 21.668C131.193 22.1373 130.878 22.57 130.438 22.966C129.998 23.3473 129.477 23.6627 128.876 23.912C128.289 24.1467 127.637 24.264 126.918 24.264ZM135.692 24V22.68H137.232V13.638H135.692V12.318H138.552V14.584L138.332 14.232C138.596 13.5867 139.028 13.088 139.63 12.736C140.231 12.3693 140.942 12.186 141.764 12.186H142.512V13.506H141.61C140.656 13.506 139.908 13.8067 139.366 14.408C138.823 15.0093 138.552 15.8233 138.552 16.85V22.68H140.312V24H135.692ZM146.101 28.4L148.191 23.384V24.616L143.241 12.296H144.693L148.939 22.922H148.411L152.679 12.296H154.153L147.553 28.4H146.101ZM159.274 24.264C158.54 24.264 157.888 24.1247 157.316 23.846C156.744 23.5673 156.289 23.1787 155.952 22.68C155.614 22.1813 155.446 21.6093 155.446 20.964C155.446 20.392 155.57 19.8567 155.82 19.358C156.069 18.8593 156.472 18.434 157.03 18.082C157.587 17.7153 158.313 17.4587 159.208 17.312L163.938 16.52V17.752L159.56 18.478C158.562 18.6393 157.858 18.94 157.448 19.38C157.037 19.82 156.832 20.3333 156.832 20.92C156.832 21.5507 157.066 22.064 157.536 22.46C158.02 22.856 158.628 23.054 159.362 23.054C160.212 23.054 160.953 22.8633 161.584 22.482C162.214 22.086 162.698 21.5727 163.036 20.942C163.388 20.2967 163.564 19.5927 163.564 18.83V15.926C163.564 15.1487 163.285 14.518 162.728 14.034C162.185 13.55 161.466 13.308 160.572 13.308C159.838 13.308 159.178 13.4913 158.592 13.858C158.005 14.2247 157.558 14.7013 157.25 15.288L156.062 14.65C156.282 14.1807 156.619 13.748 157.074 13.352C157.528 12.956 158.056 12.6407 158.658 12.406C159.259 12.1713 159.897 12.054 160.572 12.054C161.422 12.054 162.17 12.2227 162.816 12.56C163.476 12.8827 163.989 13.3373 164.356 13.924C164.722 14.496 164.906 15.1633 164.906 15.926V22.79H166.226V24H163.564V21.558L163.74 21.668C163.549 22.1373 163.234 22.57 162.794 22.966C162.354 23.3473 161.833 23.6627 161.232 23.912C160.645 24.1467 159.992 24.264 159.274 24.264Z" fill="#F8F8F8"/>
<path d="M56.5635 39V33.105H54.7455V32.295H59.2455V33.105H57.4545V39H56.5635ZM61.5958 39.108C61.1278 39.108 60.7108 38.997 60.3448 38.775C59.9788 38.553 59.6908 38.25 59.4808 37.866C59.2708 37.476 59.1658 37.041 59.1658 36.561C59.1658 36.075 59.2678 35.643 59.4718 35.265C59.6818 34.887 59.9638 34.59 60.3178 34.374C60.6778 34.152 61.0798 34.041 61.5238 34.041C61.8838 34.041 62.2018 34.107 62.4778 34.239C62.7598 34.365 62.9968 34.539 63.1888 34.761C63.3868 34.977 63.5368 35.226 63.6388 35.508C63.7468 35.784 63.8008 36.072 63.8008 36.372C63.8008 36.438 63.7948 36.513 63.7828 36.597C63.7768 36.675 63.7678 36.75 63.7558 36.822H59.7778V36.102H63.2698L62.8738 36.426C62.9278 36.114 62.8978 35.835 62.7838 35.589C62.6698 35.343 62.5018 35.148 62.2798 35.004C62.0578 34.86 61.8058 34.788 61.5238 34.788C61.2418 34.788 60.9838 34.86 60.7498 35.004C60.5158 35.148 60.3328 35.355 60.2008 35.625C60.0748 35.889 60.0238 36.204 60.0478 36.57C60.0238 36.924 60.0778 37.236 60.2098 37.506C60.3478 37.77 60.5398 37.977 60.7858 38.127C61.0378 38.271 61.3108 38.343 61.6048 38.343C61.9288 38.343 62.2018 38.268 62.4238 38.118C62.6458 37.968 62.8258 37.776 62.9638 37.542L63.6658 37.902C63.5698 38.124 63.4198 38.328 63.2158 38.514C63.0178 38.694 62.7808 38.838 62.5048 38.946C62.2348 39.054 61.9318 39.108 61.5958 39.108ZM64.8921 39V32.187H65.7291V36.858L65.3871 36.777L67.9611 34.149H69.0321L67.1691 36.102L69.1581 39H68.1681L66.3501 36.372L66.8721 36.345L65.4591 37.821L65.7291 37.209V39H64.8921ZM69.9107 39V34.149H70.7297V35.094L70.5947 35.013C70.7147 34.707 70.9067 34.47 71.1707 34.302C71.4407 34.128 71.7557 34.041 72.1157 34.041C72.4637 34.041 72.7727 34.119 73.0427 34.275C73.3187 34.431 73.5347 34.647 73.6907 34.923C73.8527 35.199 73.9337 35.511 73.9337 35.859V39H73.0877V36.129C73.0877 35.859 73.0397 35.631 72.9437 35.445C72.8477 35.259 72.7097 35.115 72.5297 35.013C72.3557 34.905 72.1547 34.851 71.9267 34.851C71.6987 34.851 71.4947 34.905 71.3147 35.013C71.1407 35.115 71.0027 35.262 70.9007 35.454C70.7987 35.64 70.7477 35.865 70.7477 36.129V39H69.9107ZM77.4354 39.108C76.9674 39.108 76.5444 39 76.1664 38.784C75.7884 38.562 75.4884 38.259 75.2664 37.875C75.0444 37.491 74.9334 37.056 74.9334 36.57C74.9334 36.084 75.0414 35.652 75.2574 35.274C75.4794 34.896 75.7794 34.596 76.1574 34.374C76.5354 34.152 76.9614 34.041 77.4354 34.041C77.9034 34.041 78.3264 34.152 78.7044 34.374C79.0824 34.59 79.3794 34.887 79.5954 35.265C79.8174 35.643 79.9284 36.078 79.9284 36.57C79.9284 37.062 79.8144 37.5 79.5864 37.884C79.3584 38.262 79.0554 38.562 78.6774 38.784C78.3054 39 77.8914 39.108 77.4354 39.108ZM77.4354 38.298C77.7354 38.298 78.0054 38.223 78.2454 38.073C78.4914 37.923 78.6834 37.716 78.8214 37.452C78.9654 37.188 79.0374 36.894 79.0374 36.57C79.0374 36.24 78.9654 35.949 78.8214 35.697C78.6834 35.439 78.4914 35.235 78.2454 35.085C78.0054 34.929 77.7354 34.851 77.4354 34.851C77.1294 34.851 76.8534 34.929 76.6074 35.085C76.3674 35.235 76.1754 35.439 76.0314 35.697C75.8874 35.949 75.8154 36.24 75.8154 36.57C75.8154 36.894 75.8874 37.188 76.0314 37.452C76.1754 37.716 76.3674 37.923 76.6074 38.073C76.8534 38.223 77.1294 38.298 77.4354 38.298ZM81.0201 39V32.187H81.8571V39H81.0201ZM85.4598 39.108C84.9918 39.108 84.5688 39 84.1908 38.784C83.8128 38.562 83.5128 38.259 83.2908 37.875C83.0688 37.491 82.9578 37.056 82.9578 36.57C82.9578 36.084 83.0658 35.652 83.2818 35.274C83.5038 34.896 83.8038 34.596 84.1818 34.374C84.5598 34.152 84.9858 34.041 85.4598 34.041C85.9278 34.041 86.3508 34.152 86.7288 34.374C87.1068 34.59 87.4038 34.887 87.6198 35.265C87.8418 35.643 87.9528 36.078 87.9528 36.57C87.9528 37.062 87.8388 37.5 87.6108 37.884C87.3828 38.262 87.0798 38.562 86.7018 38.784C86.3298 39 85.9158 39.108 85.4598 39.108ZM85.4598 38.298C85.7598 38.298 86.0298 38.223 86.2698 38.073C86.5158 37.923 86.7078 37.716 86.8458 37.452C86.9898 37.188 87.0618 36.894 87.0618 36.57C87.0618 36.24 86.9898 35.949 86.8458 35.697C86.7078 35.439 86.5158 35.235 86.2698 35.085C86.0298 34.929 85.7598 34.851 85.4598 34.851C85.1538 34.851 84.8778 34.929 84.6318 35.085C84.3918 35.235 84.1998 35.439 84.0558 35.697C83.9118 35.949 83.8398 36.24 83.8398 36.57C83.8398 36.894 83.9118 37.188 84.0558 37.452C84.1998 37.716 84.3918 37.923 84.6318 38.073C84.8778 38.223 85.1538 38.298 85.4598 38.298ZM91.3575 40.98C91.0155 40.98 90.6975 40.926 90.4035 40.818C90.1155 40.71 89.8665 40.56 89.6565 40.368C89.4525 40.182 89.2965 39.963 89.1885 39.711L89.9715 39.351C90.0555 39.579 90.2145 39.771 90.4485 39.927C90.6885 40.089 90.9885 40.17 91.3485 40.17C91.6245 40.17 91.8735 40.116 92.0955 40.008C92.3235 39.906 92.5035 39.75 92.6355 39.54C92.7675 39.336 92.8335 39.087 92.8335 38.793V37.704L92.9865 37.866C92.8185 38.196 92.5755 38.448 92.2575 38.622C91.9455 38.796 91.6005 38.883 91.2225 38.883C90.7665 38.883 90.3585 38.778 89.9985 38.568C89.6385 38.352 89.3565 38.061 89.1525 37.695C88.9485 37.323 88.8465 36.912 88.8465 36.462C88.8465 36.006 88.9485 35.595 89.1525 35.229C89.3565 34.863 89.6355 34.575 89.9895 34.365C90.3495 34.149 90.7575 34.041 91.2135 34.041C91.5915 34.041 91.9335 34.128 92.2395 34.302C92.5515 34.47 92.8005 34.704 92.9865 35.004L92.8605 35.229V34.149H93.6795V38.793C93.6795 39.213 93.5805 39.588 93.3825 39.918C93.1845 40.248 92.9085 40.506 92.5545 40.692C92.2065 40.884 91.8075 40.98 91.3575 40.98ZM91.2945 38.073C91.5825 38.073 91.8405 38.001 92.0685 37.857C92.3025 37.713 92.4885 37.521 92.6265 37.281C92.7645 37.035 92.8335 36.762 92.8335 36.462C92.8335 36.168 92.7645 35.898 92.6265 35.652C92.4885 35.406 92.3025 35.211 92.0685 35.067C91.8405 34.923 91.5825 34.851 91.2945 34.851C91.0005 34.851 90.7335 34.923 90.4935 35.067C90.2535 35.211 90.0645 35.406 89.9265 35.652C89.7945 35.892 89.7285 36.162 89.7285 36.462C89.7285 36.762 89.7945 37.035 89.9265 37.281C90.0645 37.521 90.2505 37.713 90.4845 37.857C90.7245 38.001 90.9945 38.073 91.2945 38.073ZM94.9771 39V34.149H95.8141V39H94.9771ZM94.9771 33.375V32.295H95.8141V33.375H94.9771ZM98.7675 39V32.295H101.135C101.579 32.295 101.969 32.379 102.305 32.547C102.641 32.715 102.902 32.955 103.088 33.267C103.28 33.579 103.376 33.945 103.376 34.365C103.376 34.785 103.28 35.151 103.088 35.463C102.902 35.769 102.641 36.009 102.305 36.183C101.975 36.351 101.585 36.435 101.135 36.435H99.6495V39H98.7675ZM99.6495 35.625H101.162C101.432 35.625 101.666 35.574 101.864 35.472C102.062 35.37 102.215 35.223 102.323 35.031C102.431 34.839 102.485 34.617 102.485 34.365C102.485 34.107 102.431 33.885 102.323 33.699C102.215 33.507 102.062 33.36 101.864 33.258C101.666 33.156 101.432 33.105 101.162 33.105H99.6495V35.625ZM106.526 39.108C106.058 39.108 105.641 38.997 105.275 38.775C104.909 38.553 104.621 38.25 104.411 37.866C104.201 37.476 104.096 37.041 104.096 36.561C104.096 36.075 104.198 35.643 104.402 35.265C104.612 34.887 104.894 34.59 105.248 34.374C105.608 34.152 106.01 34.041 106.454 34.041C106.814 34.041 107.132 34.107 107.408 34.239C107.69 34.365 107.927 34.539 108.119 34.761C108.317 34.977 108.467 35.226 108.569 35.508C108.677 35.784 108.731 36.072 108.731 36.372C108.731 36.438 108.725 36.513 108.713 36.597C108.707 36.675 108.698 36.75 108.686 36.822H104.708V36.102H108.2L107.804 36.426C107.858 36.114 107.828 35.835 107.714 35.589C107.6 35.343 107.432 35.148 107.21 35.004C106.988 34.86 106.736 34.788 106.454 34.788C106.172 34.788 105.914 34.86 105.68 35.004C105.446 35.148 105.263 35.355 105.131 35.625C105.005 35.889 104.954 36.204 104.978 36.57C104.954 36.924 105.008 37.236 105.14 37.506C105.278 37.77 105.47 37.977 105.716 38.127C105.968 38.271 106.241 38.343 106.535 38.343C106.859 38.343 107.132 38.268 107.354 38.118C107.576 37.968 107.756 37.776 107.894 37.542L108.596 37.902C108.5 38.124 108.35 38.328 108.146 38.514C107.948 38.694 107.711 38.838 107.435 38.946C107.165 39.054 106.862 39.108 106.526 39.108ZM109.822 39V34.149H110.641V35.094L110.506 35.013C110.626 34.707 110.818 34.47 111.082 34.302C111.352 34.128 111.667 34.041 112.027 34.041C112.375 34.041 112.684 34.119 112.954 34.275C113.23 34.431 113.446 34.647 113.602 34.923C113.764 35.199 113.845 35.511 113.845 35.859V39H112.999V36.129C112.999 35.859 112.951 35.631 112.855 35.445C112.759 35.259 112.621 35.115 112.441 35.013C112.267 34.905 112.066 34.851 111.838 34.851C111.61 34.851 111.406 34.905 111.226 35.013C111.052 35.115 110.914 35.262 110.812 35.454C110.71 35.64 110.659 35.865 110.659 36.129V39H109.822ZM117.248 39.108C116.792 39.108 116.381 38.997 116.015 38.775C115.655 38.553 115.37 38.25 115.16 37.866C114.95 37.482 114.845 37.053 114.845 36.579C114.845 36.093 114.95 35.661 115.16 35.283C115.37 34.899 115.655 34.596 116.015 34.374C116.381 34.152 116.792 34.041 117.248 34.041C117.65 34.041 118.007 34.128 118.319 34.302C118.631 34.47 118.877 34.698 119.057 34.986L118.922 35.193V32.187H119.768V39H118.949V37.965L119.057 38.109C118.889 38.427 118.643 38.673 118.319 38.847C118.001 39.021 117.644 39.108 117.248 39.108ZM117.32 38.298C117.626 38.298 117.899 38.223 118.139 38.073C118.379 37.923 118.568 37.719 118.706 37.461C118.85 37.197 118.922 36.903 118.922 36.579C118.922 36.249 118.85 35.955 118.706 35.697C118.568 35.433 118.379 35.226 118.139 35.076C117.899 34.926 117.626 34.851 117.32 34.851C117.02 34.851 116.747 34.929 116.501 35.085C116.261 35.235 116.072 35.439 115.934 35.697C115.796 35.949 115.727 36.243 115.727 36.579C115.727 36.903 115.796 37.197 115.934 37.461C116.072 37.719 116.261 37.923 116.501 38.073C116.741 38.223 117.014 38.298 117.32 38.298ZM121.063 39V34.149H121.9V39H121.063ZM121.063 33.375V32.295H121.9V33.375H121.063ZM125.404 39.108C124.948 39.108 124.537 38.997 124.171 38.775C123.811 38.553 123.526 38.25 123.316 37.866C123.106 37.482 123.001 37.053 123.001 36.579C123.001 36.093 123.106 35.661 123.316 35.283C123.526 34.899 123.811 34.596 124.171 34.374C124.537 34.152 124.948 34.041 125.404 34.041C125.806 34.041 126.163 34.128 126.475 34.302C126.787 34.47 127.033 34.698 127.213 34.986L127.078 35.193V32.187H127.924V39H127.105V37.965L127.213 38.109C127.045 38.427 126.799 38.673 126.475 38.847C126.157 39.021 125.8 39.108 125.404 39.108ZM125.476 38.298C125.782 38.298 126.055 38.223 126.295 38.073C126.535 37.923 126.724 37.719 126.862 37.461C127.006 37.197 127.078 36.903 127.078 36.579C127.078 36.249 127.006 35.955 126.862 35.697C126.724 35.433 126.535 35.226 126.295 35.076C126.055 34.926 125.782 34.851 125.476 34.851C125.176 34.851 124.903 34.929 124.657 35.085C124.417 35.235 124.228 35.439 124.09 35.697C123.952 35.949 123.883 36.243 123.883 36.579C123.883 36.903 123.952 37.197 124.09 37.461C124.228 37.719 124.417 37.923 124.657 38.073C124.897 38.223 125.17 38.298 125.476 38.298ZM129.219 39V34.149H130.056V39H129.219ZM129.219 33.375V32.295H130.056V33.375H129.219ZM131.355 39V32.187H132.192V36.858L131.85 36.777L134.424 34.149H135.495L133.632 36.102L135.621 39H134.631L132.813 36.372L133.335 36.345L131.922 37.821L132.192 37.209V39H131.355ZM137.796 39.108C137.478 39.108 137.196 39.051 136.95 38.937C136.71 38.817 136.521 38.655 136.383 38.451C136.245 38.241 136.176 38.001 136.176 37.731C136.176 37.473 136.23 37.242 136.338 37.038C136.452 36.828 136.626 36.651 136.86 36.507C137.1 36.363 137.4 36.261 137.76 36.201L139.56 35.904V36.606L137.949 36.876C137.637 36.93 137.409 37.029 137.265 37.173C137.127 37.317 137.058 37.494 137.058 37.704C137.058 37.902 137.136 38.067 137.292 38.199C137.454 38.331 137.655 38.397 137.895 38.397C138.201 38.397 138.465 38.334 138.687 38.208C138.915 38.076 139.092 37.899 139.218 37.677C139.35 37.455 139.416 37.209 139.416 36.939V35.706C139.416 35.442 139.317 35.229 139.119 35.067C138.927 34.899 138.672 34.815 138.354 34.815C138.078 34.815 137.832 34.887 137.616 35.031C137.406 35.169 137.25 35.355 137.148 35.589L136.419 35.211C136.509 34.989 136.653 34.791 136.851 34.617C137.049 34.437 137.28 34.296 137.544 34.194C137.808 34.092 138.084 34.041 138.372 34.041C138.744 34.041 139.071 34.113 139.353 34.257C139.635 34.395 139.854 34.59 140.01 34.842C140.172 35.088 140.253 35.376 140.253 35.706V38.253H140.793V39H139.434V38.082L139.587 38.136C139.485 38.328 139.347 38.496 139.173 38.64C138.999 38.784 138.795 38.898 138.561 38.982C138.327 39.066 138.072 39.108 137.796 39.108ZM141.77 39V34.149H142.589V35.094L142.454 35.013C142.574 34.707 142.766 34.47 143.03 34.302C143.3 34.128 143.615 34.041 143.975 34.041C144.323 34.041 144.632 34.119 144.902 34.275C145.178 34.431 145.394 34.647 145.55 34.923C145.712 35.199 145.793 35.511 145.793 35.859V39H144.947V36.129C144.947 35.859 144.899 35.631 144.803 35.445C144.707 35.259 144.569 35.115 144.389 35.013C144.215 34.905 144.014 34.851 143.786 34.851C143.558 34.851 143.354 34.905 143.174 35.013C143 35.115 142.862 35.262 142.76 35.454C142.658 35.64 142.607 35.865 142.607 36.129V39H141.77ZM148.266 39V38.176L149.882 36.488C150.202 36.152 150.448 35.8853 150.618 35.688C150.794 35.4853 150.917 35.312 150.986 35.168C151.056 35.024 151.09 34.8773 151.09 34.728C151.09 34.4773 151.01 34.28 150.85 34.136C150.696 33.992 150.496 33.92 150.25 33.92C149.994 33.92 149.773 33.9947 149.586 34.144C149.4 34.288 149.264 34.5013 149.178 34.784L148.226 34.488C148.29 34.1733 148.421 33.9013 148.618 33.672C148.816 33.4373 149.056 33.2587 149.338 33.136C149.626 33.008 149.93 32.944 150.25 32.944C150.634 32.944 150.97 33.0133 151.258 33.152C151.552 33.2907 151.778 33.4853 151.938 33.736C152.104 33.9867 152.186 34.28 152.186 34.616C152.186 34.8293 152.146 35.04 152.066 35.248C151.986 35.456 151.866 35.6693 151.706 35.888C151.546 36.1013 151.338 36.3413 151.082 36.608L149.682 38.08H152.266V39H148.266ZM155.504 39.096C155.029 39.096 154.613 38.968 154.256 38.712C153.899 38.456 153.619 38.096 153.416 37.632C153.219 37.168 153.12 36.6293 153.12 36.016C153.12 35.3973 153.219 34.8587 153.416 34.4C153.613 33.9413 153.891 33.584 154.248 33.328C154.605 33.072 155.021 32.944 155.496 32.944C155.981 32.944 156.4 33.072 156.752 33.328C157.109 33.584 157.389 33.944 157.592 34.408C157.795 34.8667 157.896 35.4027 157.896 36.016C157.896 36.6293 157.795 37.168 157.592 37.632C157.395 38.0907 157.117 38.4507 156.76 38.712C156.403 38.968 155.984 39.096 155.504 39.096ZM155.512 38.104C155.784 38.104 156.016 38.0213 156.208 37.856C156.4 37.6853 156.547 37.4453 156.648 37.136C156.755 36.8213 156.808 36.448 156.808 36.016C156.808 35.584 156.755 35.2133 156.648 34.904C156.547 34.5893 156.397 34.3493 156.2 34.184C156.008 34.0187 155.773 33.936 155.496 33.936C155.229 33.936 155 34.0187 154.808 34.184C154.616 34.3493 154.467 34.5893 154.36 34.904C154.259 35.2133 154.208 35.584 154.208 36.016C154.208 36.4427 154.259 36.8133 154.36 37.128C154.467 37.4373 154.616 37.6773 154.808 37.848C155.005 38.0187 155.24 38.104 155.512 38.104ZM158.704 39V38.176L160.32 36.488C160.64 36.152 160.885 35.8853 161.056 35.688C161.232 35.4853 161.355 35.312 161.424 35.168C161.493 35.024 161.528 34.8773 161.528 34.728C161.528 34.4773 161.448 34.28 161.288 34.136C161.133 33.992 160.933 33.92 160.688 33.92C160.432 33.92 160.211 33.9947 160.024 34.144C159.837 34.288 159.701 34.5013 159.616 34.784L158.664 34.488C158.728 34.1733 158.859 33.9013 159.056 33.672C159.253 33.4373 159.493 33.2587 159.776 33.136C160.064 33.008 160.368 32.944 160.688 32.944C161.072 32.944 161.408 33.0133 161.696 33.152C161.989 33.2907 162.216 33.4853 162.376 33.736C162.541 33.9867 162.624 34.28 162.624 34.616C162.624 34.8293 162.584 35.04 162.504 35.248C162.424 35.456 162.304 35.6693 162.144 35.888C161.984 36.1013 161.776 36.3413 161.52 36.608L160.12 38.08H162.704V39H158.704ZM165.453 39.096C165.128 39.096 164.819 39.0373 164.525 38.92C164.237 38.7973 163.989 38.6267 163.781 38.408C163.579 38.184 163.44 37.92 163.365 37.616L164.317 37.28C164.413 37.552 164.56 37.76 164.757 37.904C164.955 38.0427 165.187 38.112 165.453 38.112C165.667 38.112 165.851 38.072 166.005 37.992C166.165 37.912 166.291 37.7973 166.381 37.648C166.472 37.4933 166.517 37.312 166.517 37.104C166.517 36.896 166.472 36.72 166.381 36.576C166.296 36.4267 166.173 36.312 166.013 36.232C165.853 36.152 165.664 36.112 165.445 36.112C165.344 36.112 165.237 36.1227 165.125 36.144C165.019 36.1653 164.923 36.1973 164.837 36.24L164.589 35.72L166.133 33.96H163.701V33.04H167.357V33.896L165.805 35.712L165.821 35.304C166.179 35.3093 166.491 35.3867 166.757 35.536C167.024 35.6853 167.232 35.8907 167.381 36.152C167.531 36.4133 167.605 36.72 167.605 37.072C167.605 37.456 167.512 37.8027 167.325 38.112C167.139 38.416 166.883 38.656 166.557 38.832C166.232 39.008 165.864 39.096 165.453 39.096Z" fill="#B1CFFF"/>
</svg>
